<?xml version="1.0" encoding="utf-8"?>
<!-- Generator: Adobe Illustrator 27.5.0, SVG Export Plug-In . SVG Version: 6.00 Build 0)  -->
<svg version="1.1" id="Ripped_paper" xmlns="http://www.w3.org/2000/svg" xmlns:xlink="http://www.w3.org/1999/xlink" x="0px"
	 y="0px" viewBox="0 0 600 400" style="enable-background:new 0 0 600 400;" xml:space="preserve">
<rect id="Background" x="0" style="fill:#3B3D49;" width="600" height="400"/>
<g>
	<g>
		<g>
			<path style="fill:#17181E;" d="M559.71,43.58V95.9c-1.13-0.35-2.23-0.75-3.33-1.16c-1.7-1.05-3.39-1.4-5.12-1.87
				c-1.73-0.81-3.53-1.44-5.35-1.44c-1.81-1.27-3.64-1.05-5.44-0.26c-3.14,0.41-6.32,0.03-9.52,0.73c-3.2-0.26-6.41,0.75-9.62,0.56
				c-3.2,0.02-6.39,1.84-9.54,1.11c-3.12,1.34-6.23,0.87-9.35,1.08c-3.12,0.21-6.24,0.3-9.37,0.33c-3.13-0.28-6.27-1.39-9.43-0.03
				c-2.84-1.06-5.7,1.54-8.57,0.84c-2.86,0.09-5.73,1.29-8.58,1.82c-2.85-0.19-5.7,2.63-8.51,1.63c-2.44,1.24-4.99,1.29-7.51,0.68
				c-2.53-0.42-5.03,0.35-7.39,1.38c-1.65,1.9-3.29,1.77-4.95,0.81c-1.67,0.05-3.35-0.04-5.09-0.04c-3.09-1.39-6.22-0.33-9.34,0.14
				c-3.13,0.66-6.25-1.31-9.33-0.27c-2.12-0.52-4.21-0.77-6.29-1.11c-2.09,0.16-4.17-0.5-6.28-1.15c-1.38,0.66-2.75-0.77-4.13-0.42
				c-1.37-0.73-2.75-1.13-4.14-0.45c-1.46,0.24-2.95,0.68-4.45-0.61c-1.49-0.43-3-0.88-4.48-0.12c-1.68-0.02-3.28-0.87-4.88,0.5
				c-1.6,1.28-3.21,0.99-4.92,0.27c-2.04,0.03-4.05,0.35-6.05,0.74c-2,0.15-3.99,0.29-5.99,1.14c-1.74,0.37-4.82,1.65-6.64,0.61
				c-0.39-0.7-1.04-0.87-1.2-0.67c-1.47,0.33-2.47-0.82-3.83-0.95c-1.09,0.59-1.52-0.24-2.82-1.64c-1.09-0.91-2.43-0.15-3.77-0.16
				c-1.34-0.62-2.68-0.64-3.78,0.2c-2.49,0-4.92-0.96-7.33,0.01c-2.41-0.47-4.79-0.37-7.2,0.68c-2.79,1.68-5.59,0.24-8.39,1.3
				c-2.8-0.17-5.61-0.25-8.43,1c-3.61,1.48-7.32,1.74-11.05,0.51c-3.73,0.98-7.5-0.76-11.22-0.58c-3.72-0.73-7.4-0.38-10.98-1.14
				c-2.4,0.88-4.79,0.52-7.2-0.81c-2.4-0.34-4.81-1.14-7.23-0.2c-2.21-0.25-3.26,1.04-5.47,1.6c-3.06,1.77-6.1-0.54-9.16-0.56
				c-3.05,0.53-6.1-1.66-9.19-0.25c-1.18,1.43-1.99,1.64-3.14,0.85c-1.24,0.4-2.64-0.5-4.05,0.16c-1.41-0.09-2.83,0.39-4.12-0.23
				c-2.99,1.03-6.16,0.87-9.33,1.33c-3.17,0.57-6.35,1.13-9.33,0.13c-1.34-0.24-2.6-1.75-3.85-1.57c-1.26,0.73-2.51-2.44-3.83-1.48
				c-1.32-1.25-2.8-0.26-4.28-0.18c-1.48,0.08-2.97-0.19-4.34,0.22c-1.44-1.06-3.03-1.25-4.61-0.17c-1.58,0.62-3.15,0.02-4.57,0.31
				c-1.28,1.68-2.58,1.59-3.89,1.09c-1.31,1.1-2.62,0.97-3.92,1.16c-1.45,0.74-2.9-0.22-4.35,0.75c-1.45,1.23-2.91-0.73-4.37,0.6
				c-1.71,0.37-3.41,0.82-5.07,1.13c-1.65,0.44-3.27,2.34-4.81,1.86c-1.75,2.2-3.28,0.79-4.84,1.07c-1.57-0.48-3.18-1.24-5.1-0.61
				c-1.9-1.01-3.3,0.94-4.9-0.67c-1.27,1.89-2.08-1.07-3.17-1.76c-1.15,0.46-2.05-3.01-3.15-3.23c-1.35-0.31-2.75-1.66-4.52-0.74
				c-1.27,0.27-2.81-1.24-4.34,0.24c-1.53-0.75-3.04-0.57-4.26-0.31c-1.23,0.66-1.64-2.08-2.99-0.74c-2.46-0.12-4.6,0.09-7.13,0.81
				c-1.25-1.39-2.69-0.93-4.13-0.22c-1.44,0.08-2.87-0.59-4.1,0.16c-1.23-1.41-2.4,0.76-3.56,1.63c-1.16,0.61-2.32,1.08-3.54,1.64
				c-3.19,0.2-6.39-1.4-9.57-0.72c-3.19-2.03-6.35-1.35-9.47-1.7c-2.11-0.71-4.44-1.22-6.77,0.3c-2.32-0.59-4.63,0.33-6.69-0.26
				c-1.37-1.93-2.75,0.68-4.14-0.88c-1.39-0.75-2.78-2.37-4.18-0.77c-0.86-1.94-2.31,1.08-3.17-0.01c-1.66-2.1-1.53,1.41-2.43,1.98
				c-0.93,1.02-1.86,4.01-3.4,3.68c-1.34,1.9-4.32-0.02-6.17-0.12V43.58H559.71z"/>
		</g>
		<g>
			<path style="fill:#17181E;" d="M559.71,129.52v57c-0.6-0.21-1.2-0.37-1.8-0.43c-2.63-0.24-5.29-2.29-7.8-1.25
				c-2.06-0.46-4.2-4.43-6.43-0.87c-1.78,1.26-3.24,2.94-4.7,3.23c-1.26,2.68-2.25,2.12-3.66,1.7c-1.6-0.27-3.51,0.7-5.44,0.83
				c-1.93-2.91-3.88,0.03-5.56-0.38c-3.46,0.79-6.88-3.79-10.33-1.79c-3.45-0.76-6.91-0.47-10.43-1.19
				c-2.49,1.01-4.96,0.58-7.43-0.43c-2.47-0.56-4.94-2.41-7.45-0.32c-1.76-1.5-2.97-0.59-4.61,0.6c-1.74,0.72-3.47-1.19-5.23,0.13
				c-2.39-0.91-4.9,2.74-7.39,0.85c-2.5-0.01-4.99,1.46-7.35,1.3c-2.74,1.3-5.41,3.48-8.09,0.87c-2.68-0.39-5.38,0.81-8.16,0.11
				c-3.21,0.15-6.45,0.4-9.64-0.72c-3.2-0.8-6.36,1.36-9.4-2.37c-2.97,1.51-5.96-0.26-8.98-1.49c-3.02,0.14-6.06-0.22-9.15-0.45
				c-1.53-0.62-3.03-1.53-4.53-0.27c-1.51-1.01-3.01-0.03-4.55-0.07c-1.74,0.78-3.45,1.09-5.17-0.47c-1.71,0.25-3.43,2.45-5.18-0.37
				c-2.77,0.71-5.53,0.19-8.29,0.04c-2.77-0.13-5.53-0.04-8.29-0.03c-3.04-2.59-6.09-0.56-9.15,0.2c-3.05-1.53-6.11,0.54-9.16,0.62
				c-3.06,0.97-6.09,2.28-9.1,0.95c-1.59,2.29-3.12-0.9-4.65,0.43c-1.52-3.6-3.06,1.9-4.64,0.13c-1.14-1.87-2.43-1.32-3.54,0.07
				c-2.15,1.31-4.39-0.98-6.65,1.43c-2.26,0.56-4.54,1.04-6.79,0.85c-2.31,0.14-4.58-1.93-6.86,0.76c-2.27,0.19-4.54,2.44-6.84,0.79
				c-2.78,0.77-5.53,0.21-8.28,0.43c-2.75-0.23-5.5,0.71-8.29,0.32c-2.79-2.46-5.59,2.27-8.38-0.02c-2.79,0.89-5.58,0.25-8.37,0.02
				c-1.52-0.26-2.73-0.56-3.89-0.81c-1.16-1.1-2.26-0.91-3.54-2.06c-1.26,0.17-2.54-3.18-3.84-2.43c-1.29,0.7-2.6-0.87-3.92-2.29
				c-1.63-0.39-3.33-1.4-5.06-1.83c-1.73,0.28-3.5-0.53-5.27-1.13c-1.7,0.91-3.66-0.79-5.64-1.42c-1.97-0.62-3.97,1.2-5.76-0.45
				c-1.3,0.42-2.35,0.74-3.66,0.84c-1.84,1.45-1.98,1.13-3.13-1.92c-0.94,0.93-1.93-1.17-2.92-2.91c-0.98-0.37-1.96-4.43-2.86-3
				c-0.92-1-1.74-3.75-2.64-3.55c-0.89-2.08-1.85-0.72-3.04-3.12c-1.24-2.72-2.79-1.02-4.37-1.14c-1.58-2.04-3.2-1.43-4.55,0.55
				c-1.93-1.55-3.8,1.18-5.68,1.25c-1.88-0.43-3.77,0.18-5.72,1.13c-1.84-1.87-3.69,2.18-5.53,0.86c-1.84-0.26-3.68,0.83-5.5,0.98
				c-2.69,1.72-5.39,1.81-8.09,1.64c-2.69-2-5.37,0.78-8.01,1.89c-2.66-1.52-5.31,3.55-7.89,2.84c-2.59-0.55-5.12,0.93-7.55,3.71
				c-1.93-1.26-2.48,2.41-4.69,1.51c-1.67-0.98-3.31-1.4-4.96,0.44c-1.65-1.39-3.3-2.48-5,0.36c-2.52-2.61-4.96,1.01-7.39,0.49
				c-2.42,0.24-4.83-1.46-7.29,1.15c-2.16-2.25-4.28,3.12-6.41,0.59c-2.13-2.86-4.26,2.14-6.46,0.09c-1.76,0.3-3.4,0.51-4.96-1.06
				c-1.57-0.1-3.08-0.31-4.57-2.43c-2.26-3.38-4.62,0.95-7.07-2.86c-2.46-2.67-5.01-2.74-7.66-0.65c-2.28-0.95-4.33,1.82-6.33,1.75
				c-2,1.87-3.95,4.88-6.06,2.54c-1.18,1.91-2.28-2.73-3.36,1.35c-1.08-4.56-2.13,1.99-3.22,1.45c-1.66-1.42-3.53,2.49-5.43,0.95
				c-1.9,0.3-3.83-3.32-5.57,0.45c-2.43,4.02-5.02-0.63-7.58,1.4c-2.56,4.85-5.09,3.59-7.38,2.15c-1.38,4.42-2.79,4.57-4.23,2.28
				v-60.32H559.71z"/>
		</g>
		<g>
			<path style="fill:#17181E;" d="M559.71,215.45v57.08c-0.39,0.01-0.77,0.16-1.16,0.57c-1.55,0.91-3.1-0.81-4.65,0
				c-3.09,1.34-6.17-0.35-9.25-0.21c-3.08-0.45-6.16,1.28-9.24-0.37c-3.08,1.24-6.16-1.13-9.26-0.19c-3.57,0.02-7.04-2.3-10.51-0.47
				c-3.47-1.13-6.93-2.51-10.47-1.28c-1.29,1.07-2.52-0.68-3.74-1.02c-1.23-1.43-2.44-2.75-3.69-1.05c-1.45-1.31-2.75,2.04-4.24-0.6
				c-1.75,0.8-3.5,0.76-5.26-1.17c-1.77-1.45-3.53,1.42-5.29-1.03c-2.33-2.74-4.82,0.82-7.08-0.31c-1.33,0.9-2.27-1.78-3.65-0.83
				c-1.16,1.52-2.34-1.95-3.51-0.01c-2.21-0.58-4.4,1-6.59,0.4c-2.2,0.55-4.39-0.57-6.61,0.41c-1.4,0.25-2.79,0.58-4.18-0.03
				c-1.4-2-2.79,0.32-4.18,0.01c-1.57,0.09-3,0.36-4.39-0.86c-1.39,0.57-2.74-1.11-4.18-1.84c-1.36-0.98-2.57,0.42-3.74-1.92
				c-1.17,0.57-2.29-2.82-3.48-2.13c-1.03-1.09-0.88-1.69-2.1-0.99c-1.09,1.31-1.3-0.91-2.29-0.96c-1.22,1.77-2.48-1.77-3.76-2.07
				c-1.28-1.15-2.58-1.48-3.86-1.82c-1.09-0.46-2.15-1.46-3.31-1.38c-1.19-0.23-2.51,0.31-3.84-0.12c-1.32-0.09-2.65-0.55-3.86,0.16
				c-2.18-0.5-4.11-0.23-5.94,0.23c-1.83-1.05-3.55-0.19-5.3,2.38c-1.41,0.35-2.73,3.02-3.88,4.15c-1.15,3.1-2.14,2.14-2.9,4.87
				c-0.49,3.11-0.92,4.84-1.47,3.36c-0.56,1.8-1.24,2.18-2.22,2.85c-1.32,1.8-2.92,1.62-4.57,1.49c-1.66-0.77-3.36,1.08-4.88,0.04
				c-1.89-1.72-3.75-1.2-5.58-0.16c-1.83,0.58-3.64-0.31-5.41-0.98c-1.89-0.85-2.69,0.45-4.13-2.8c-0.92-1.24-1.09-1.64-2.49-0.73
				c-1.73-0.95-2.82,1.65-4.53,1.54c-1.56-0.77-3.11,0.81-4.68,1.45c-1.56,2.4-3.14,1.06-4.77,1.08c-1.19,0.56-2.41,1.55-3.59,0.97
				c-1.18,0.3-2.32-0.22-3.35,1.56c-1.33,0.72-1.98,0.09-3.57,1.17c-2.2,0.3-4.48-0.55-6.73-0.2c-2.26-0.99-4.48-2.14-6.55-1.54
				c-1.27,0.09-2.47-2.02-3.69-2.12c-1.22-3.07-2.46-1.8-3.82-1.6c-1.43,0.29-2.91-0.79-4.4-0.07c-1.49,1.4-2.98-0.9-4.42,0.12
				c-1.91,0.57-3.64,1.9-5.52-0.82c-1.02,1.28-1.92-1.58-2.91-0.15c-0.82-0.23-1.36-1.92-2.44-0.6c-1.59,0.61-3.17-1.08-4.76-0.07
				c-1.67-2.5-3.26,0.21-4.78-0.88c-1.52,1.05-2.98-2.93-4.42-1.34c-1.81-0.34-3.52-1.56-5.37-2.31c-1.76,0.69-3.24-1.58-4.84-2.39
				c-0.89,0.12-2.07-3.1-3.09-2.25c-1.03-1.47-2.57-1.45-4.13-0.36c-1.55-1.22-3.12,0.81-4.17,0.36c-1.6,0.13-3.17-0.48-4.75,1.3
				c-1.22,1.52-3.75,2.85-4.53,1.69c-0.32,1.01-0.62,2.25-0.85,2.94c-0.32,2.8-0.73,0.2-1.14,2.33c-0.94,2.86-2.3,3.55-3.97,3.29
				c-1.86-0.98-4.07,1.31-6.26,0.02c-2.19,0.25-4.35-0.82-6.12-1.65c-0.99-0.31-1.7-2.46-2.64-1.5c-0.93,0.84-2.33-0.26-3.25,0.22
				c-1.74-0.3-3.38-0.07-4.98,1.03c-1.6,1.87-3.17,1.25-4.74,1.7c-1.97,1.94-3.95,2.42-5.89,2.98c-1.93-0.41-3.82,0.86-5.58,3.61
				c-1.4-0.16-2.92,3.49-4.26,2.86c-1.47,1.85-1.7,1.73-3.78,1.63c-2.79-1.23-5.59-0.42-8.37-1.16c-2.78-0.62-5.56-0.18-8.32-1.6
				c-1.71,0.53-3.35,0.69-4.99-1.06c-1.63,0.96-3.26-0.9-4.95-1.23c-1.46,1.28-2.93,1.62-4.45-0.44c-2.06,0.11-3.94,1.16-6.06,1.41
				c-1.54,1.3-3.09,1.02-4.65,0.22c-1.55-0.04-3.11-1.03-4.65-0.07c-1.34,0.63-2.34-0.75-3.58-0.37c-0.8,1.17-1.68,0.47-2.37-1.11
				c-1.7,0.09-3.77,2.16-5.51-0.07c-1.59-0.19-3.14-2.37-4.69-0.16c-1.54-1.68-3.09-2.47-4.67-0.4c-1.53-2.05-3.31-0.79-4.83-0.51
				c-1.57-1.07-3.2-0.63-4.7-2.04c-1.81-0.11-3.98,0.16-4.72-3c-2.23,2.43-4.23,0.84-6.2,1.75c-1.96,3.56-3.9,2-6.01,2.47
				c-1.42,0.2-2.91,0.97-4.41,0.43c-1.5,0.82-3.01-1.79-4.47-0.08c-3.1,0.94-6.2-1.15-9.3-0.6c-3.1-0.78-6.2-2.12-9.3-1.12
				c-3.11-1.28-6.22-1.41-9.33-0.6c-1.59-0.88-3.07,0.27-4.55,0.75c-1.48,0.85-2.95-0.16-4.52,0.81c-1.25-1.34-2.52-0.26-3.78-0.04
				c-1.26-0.5-2.52-1.56-3.77,0.01c-2.2,1-3.92,2.75-5.49,1.82c-1.17,0.83-2.25,1.92-3.37,2.87v-61.55H559.71z"/>
		</g>
		<g>
			<path style="fill:#17181E;" d="M559.71,301.39v60.55c-1.54-0.03-3.09-0.35-4.62-1.17c-3.19-0.87-6.36-0.93-9.51-1.65
				c-3.15-0.34-6.28-2.15-9.4-2.41c-1.17-1.22-2.46-0.65-3.71-1.14c-1.24,0.17-2.44-0.5-3.43-1.79c-1.34-3.48-2.02-0.86-3.33-3.55
				c-0.72-0.14-1.69-2.71-2.68-2.5c-1-1.5-2.02-1.44-2.84-2.17c-1.49,1.21-4.1-0.06-5.81-1.28c-1.77,1.06-3.65-0.45-5.54-0.18
				c-1.88,0.62-3.76-1.01-5.51,0.34c-1.89-1.98-3.51,1.76-5.08,1.55c-1.56,0.96-3.05-0.89-4.68,2.53c-1.82,0.9-3.72,1.62-5.66,2.46
				c-1.95-0.36-3.94,1.28-5.96,1.67c-3.35,0.69-6.79,2.4-10.2,1.44c-3.41,0.61-6.78-1.27-10.02,2.25c-1.31,2.25-2.81,0.95-4.21,1.86
				c-1.67,0.62-3.47,1.66-5.2,0.62c-2.33-0.44-4.54,2.39-6.69,1.81c-2.15,0.8-4.25,2.16-6.38,2.66c-1.81,0.13-3.88,2.14-6.01,2.08
				c-2.13,0.45-4.31,0.67-6.34,0.63c-1.48-1.04-1.93,0.78-3.16-0.89c-1.31-1.04-2.56-2.66-3.87-2.41c-1.31,0.02-2.69-1.63-4.25-1.73
				c-2.84-1.48-5.74-1.34-8.68-2.07c-2.93-2.45-5.9-1.81-8.88-0.91c-2.98,0.82-5.96-0.98-8.93-0.49c-1.72,0-3.25-0.07-4.77-0.9
				c-1.51,0.68-3-0.5-4.63-1.48c-1.74-0.76-3.65,0.25-5.57-1.31c-1.91-2.57-3.85-0.26-5.65-0.9c-3.09-1.72-6.32,1.11-9.56-1
				c-3.23-2.1-6.47,1.75-9.59,0.28c-2.46,2.22-4.8-0.72-7.11,2.01c-2.31,2.7-4.59,2.3-6.91,2.68c-2.32,2.43-4.67,0.49-7.15,1.41
				c-2.36,1-4.73-1.82-7.09-0.02c-2.37-1.17-4.73-3-7.1-0.01c-1.4,3.1-1.57,0.92-2.54-0.65c-1.18-1.13-2.21-0.7-3.19-3.56
				c-0.97-0.02-1.9-5.98-2.89-3.89c-1.56,1.75-3.39-3.4-5.34-4.58c-1.95-1.26-4.02-6.54-6.06-3.54c-1.92-1.33-3.61-2.26-5.36-3.23
				c-1.74-0.74-3.54-2.19-5.65-2.62c-1.82-2.55-3.67,0.47-5.45-0.8c-1.99,1.09-3.56-1.47-5.44-2.91c-1.19-3.41-2.42-3.06-3.69-1.17
				c-1.27,0.23-2.58-0.75-3.94-0.14c-3.41-0.65-6.18,1.67-8.66,3.57c-2.49,4.31-4.69,2.99-6.98,6.37c-0.91-0.62-1.97-1.91-3.08,1.94
				c-1.12,3.35-2.3,1.69-3.47,1.27c-2.22,3.47-4.52,1.36-6.85,1.5c-2.12,3-4.31-3.6-6.47,1.6c-2.16-0.42-4.29-0.94-6.31,2.13
				c-1.33-0.96-2.61,0.14-3.9,1.71c-1.28,1.11-2.57,0.47-3.93,1.58c-2.12-3.52-3.61-0.09-5.48,2.67c-2,2.24-3.75,1.06-5.48,4.31
				c-1.73,1.36-3.43,2.2-5.35,4.47c-1.1-0.01-1.24-1.65-2.61,0.91c-1.62-0.98-2.86-0.07-4.28,1.22h-20.51
				c-0.38-0.1-0.76-0.19-1.16-0.28c-1.4-1.65-2.88,0.66-4.36-0.15c-1.48-1.32-2.96,0.57-4.38-0.14c-1.99-0.9-3.83-0.36-5.7-2.19
				c-1.86-0.86-3.75-2.23-5.81-1.56c-1.86-1.22-3.81-1.12-5.76,0.16c-1.95,0.25-3.89-0.96-5.73-0.28c-3.06-1.77-6.08-2.69-9.13-1.66
				c-3.05-3.07-6.12-2.42-9.27-0.55c-1.35-0.29-2.66,1.77-3.97,0.47c-1.3-2.24-2.62,0.54-3.99,0.35c-1.28-1.1-2.57,1.93-3.85-0.01
				c-1.29-1.35-2.57,0.46-3.85,0c-1.23,0.62-2.63-0.64-3.85,0.04c-1.29-0.02-2.53,0.32-3.77-0.88c-1.24-0.06-2.49,2.67-3.82-0.74
				c-2.49-1.58-5.2-4.57-7.91-0.3c-2.71,1.81-5.41-0.37-7.88,0.4c-2.28-0.42-4.12,1.36-6.49,0.71c-1.26-0.87-2.51,1.75-3.77-0.01
				c-1.26,1.36-2.51,1.31-3.77,0.01c-3.23-2.73-6.43,0.04-9.63,0.04c-3.19,0.67-6.38-5.3-9.57,0.83c-1.13-1.14-2.26-0.98-3.38-0.4
				v-58.89H559.71z"/>
		</g>
	</g>
</g>
<g>
	<path style="fill:#ECECEC;" d="M559.71,38.58V90.9c-1.13-0.35-2.23-0.75-3.33-1.16c-1.7-1.05-3.39-1.4-5.12-1.87
		c-1.73-0.81-3.53-1.44-5.35-1.44c-1.81-1.27-3.64-1.05-5.44-0.26c-3.14,0.41-6.32,0.03-9.52,0.73c-3.2-0.26-6.41,0.75-9.62,0.56
		c-3.2,0.02-6.39,1.84-9.54,1.11c-3.12,1.34-6.23,0.87-9.35,1.08c-3.12,0.21-6.24,0.3-9.37,0.33c-3.13-0.28-6.27-1.39-9.43-0.03
		c-2.84-1.06-5.7,1.54-8.57,0.84c-2.86,0.09-5.73,1.29-8.58,1.82c-2.85-0.19-5.7,2.63-8.51,1.63c-2.44,1.24-4.99,1.29-7.51,0.68
		c-2.53-0.42-5.03,0.35-7.39,1.38c-1.65,1.9-3.29,1.77-4.95,0.81c-1.67,0.05-3.35-0.04-5.09-0.04c-3.09-1.39-6.22-0.33-9.34,0.14
		c-3.13,0.66-6.25-1.31-9.33-0.27c-2.12-0.52-4.21-0.77-6.29-1.11c-2.09,0.16-4.17-0.5-6.28-1.15c-1.38,0.66-2.75-0.77-4.13-0.42
		c-1.37-0.73-2.75-1.13-4.14-0.45c-1.46,0.24-2.95,0.68-4.45-0.61c-1.49-0.43-3-0.88-4.48-0.12c-1.68-0.02-3.28-0.87-4.88,0.5
		c-1.6,1.28-3.21,0.99-4.92,0.27c-2.04,0.03-4.05,0.35-6.05,0.74c-2,0.15-3.99,0.29-5.99,1.14c-1.74,0.37-4.82,1.65-6.64,0.61
		c-0.39-0.7-1.04-0.87-1.2-0.67c-1.47,0.33-2.47-0.82-3.83-0.95c-1.09,0.59-1.52-0.24-2.82-1.64c-1.09-0.91-2.43-0.15-3.77-0.16
		c-1.34-0.62-2.68-0.64-3.78,0.2c-2.49,0-4.92-0.96-7.33,0.01c-2.41-0.47-4.79-0.37-7.2,0.68c-2.79,1.68-5.59,0.24-8.39,1.3
		c-2.8-0.17-5.61-0.25-8.43,1c-3.61,1.48-7.32,1.74-11.05,0.51c-3.73,0.98-7.5-0.76-11.22-0.58c-3.72-0.73-7.4-0.38-10.98-1.14
		c-2.4,0.88-4.79,0.52-7.2-0.81c-2.4-0.34-4.81-1.14-7.23-0.2c-2.21-0.25-3.26,1.04-5.47,1.6c-3.06,1.77-6.1-0.54-9.16-0.56
		c-3.05,0.53-6.1-1.66-9.19-0.25c-1.18,1.43-1.99,1.64-3.14,0.85c-1.24,0.4-2.64-0.5-4.05,0.16c-1.41-0.09-2.83,0.39-4.12-0.23
		c-2.99,1.03-6.16,0.87-9.33,1.33c-3.17,0.57-6.35,1.13-9.33,0.13c-1.34-0.24-2.6-1.75-3.85-1.57c-1.26,0.73-2.51-2.44-3.83-1.48
		c-1.32-1.25-2.8-0.26-4.28-0.18c-1.48,0.08-2.97-0.19-4.34,0.22c-1.44-1.06-3.03-1.25-4.61-0.17c-1.58,0.62-3.15,0.02-4.57,0.31
		c-1.28,1.68-2.58,1.59-3.89,1.09c-1.31,1.1-2.62,0.97-3.92,1.16c-1.45,0.74-2.9-0.22-4.35,0.75c-1.45,1.23-2.91-0.73-4.37,0.6
		c-1.71,0.37-3.41,0.82-5.07,1.13c-1.65,0.44-3.27,2.34-4.81,1.86c-1.75,2.2-3.28,0.79-4.84,1.07c-1.57-0.48-3.18-1.24-5.1-0.61
		c-1.9-1.01-3.3,0.94-4.9-0.67c-1.27,1.89-2.08-1.07-3.17-1.76c-1.15,0.46-2.05-3.01-3.15-3.23c-1.35-0.31-2.75-1.66-4.52-0.74
		c-1.27,0.27-2.81-1.24-4.34,0.24c-1.53-0.75-3.04-0.57-4.26-0.31c-1.23,0.66-1.64-2.08-2.99-0.74c-2.46-0.12-4.6,0.09-7.13,0.81
		c-1.25-1.39-2.69-0.93-4.13-0.22c-1.44,0.08-2.87-0.59-4.1,0.16c-1.23-1.41-2.4,0.76-3.56,1.63c-1.16,0.61-2.32,1.08-3.54,1.64
		c-3.19,0.2-6.39-1.4-9.57-0.72c-3.19-2.03-6.35-1.35-9.47-1.7c-2.11-0.71-4.44-1.22-6.77,0.3c-2.32-0.59-4.63,0.33-6.69-0.26
		c-1.37-1.93-2.75,0.68-4.14-0.88c-1.39-0.75-2.78-2.37-4.18-0.77c-0.86-1.94-2.31,1.08-3.17-0.01c-1.66-2.1-1.53,1.41-2.43,1.98
		c-0.93,1.02-1.86,4.01-3.4,3.68c-1.34,1.9-4.32-0.02-6.17-0.12V38.58H559.71z"/>
	<path style="fill:#ECECEC;" d="M559.71,124.52v57c-0.6-0.21-1.2-0.37-1.8-0.43c-2.63-0.24-5.29-2.29-7.8-1.25
		c-2.06-0.46-4.2-4.43-6.43-0.87c-1.78,1.26-3.24,2.94-4.7,3.23c-1.26,2.68-2.25,2.12-3.66,1.7c-1.6-0.27-3.51,0.7-5.44,0.83
		c-1.93-2.91-3.88,0.03-5.56-0.38c-3.46,0.79-6.88-3.79-10.33-1.79c-3.45-0.76-6.91-0.47-10.43-1.19c-2.49,1.01-4.96,0.58-7.43-0.43
		c-2.47-0.56-4.94-2.41-7.45-0.32c-1.76-1.5-2.97-0.59-4.61,0.6c-1.74,0.72-3.47-1.19-5.23,0.13c-2.39-0.91-4.9,2.74-7.39,0.85
		c-2.5-0.01-4.99,1.46-7.35,1.3c-2.74,1.3-5.41,3.48-8.09,0.87c-2.68-0.39-5.38,0.81-8.16,0.11c-3.21,0.15-6.45,0.4-9.64-0.72
		c-3.2-0.8-6.36,1.36-9.4-2.37c-2.97,1.51-5.96-0.26-8.98-1.49c-3.02,0.14-6.06-0.22-9.15-0.45c-1.53-0.62-3.03-1.53-4.53-0.27
		c-1.51-1.01-3.01-0.03-4.55-0.07c-1.74,0.78-3.45,1.09-5.17-0.47c-1.71,0.25-3.43,2.45-5.18-0.37c-2.77,0.71-5.53,0.19-8.29,0.04
		c-2.77-0.13-5.53-0.04-8.29-0.03c-3.04-2.59-6.09-0.56-9.15,0.2c-3.05-1.53-6.11,0.54-9.16,0.62c-3.06,0.97-6.09,2.28-9.1,0.95
		c-1.59,2.29-3.12-0.9-4.65,0.43c-1.52-3.6-3.06,1.9-4.64,0.13c-1.14-1.87-2.43-1.32-3.54,0.07c-2.15,1.31-4.39-0.98-6.65,1.43
		c-2.26,0.56-4.54,1.04-6.79,0.85c-2.31,0.14-4.58-1.93-6.86,0.76c-2.27,0.19-4.54,2.44-6.84,0.79c-2.78,0.77-5.53,0.21-8.28,0.43
		c-2.75-0.23-5.5,0.71-8.29,0.32c-2.79-2.46-5.59,2.27-8.38-0.02c-2.79,0.89-5.58,0.25-8.37,0.02c-1.52-0.26-2.73-0.56-3.89-0.81
		c-1.16-1.1-2.26-0.91-3.54-2.06c-1.26,0.17-2.54-3.18-3.84-2.43c-1.29,0.7-2.6-0.87-3.92-2.29c-1.63-0.39-3.33-1.4-5.06-1.83
		c-1.73,0.28-3.5-0.53-5.27-1.13c-1.7,0.91-3.66-0.79-5.64-1.42c-1.97-0.62-3.97,1.2-5.76-0.45c-1.3,0.42-2.35,0.74-3.66,0.84
		c-1.84,1.45-1.98,1.13-3.13-1.92c-0.94,0.93-1.93-1.17-2.92-2.91c-0.98-0.37-1.96-4.43-2.86-3c-0.92-1-1.74-3.75-2.64-3.55
		c-0.89-2.08-1.85-0.72-3.04-3.12c-1.24-2.72-2.79-1.02-4.37-1.14c-1.58-2.04-3.2-1.43-4.55,0.55c-1.93-1.55-3.8,1.18-5.68,1.25
		c-1.88-0.43-3.77,0.18-5.72,1.13c-1.84-1.87-3.69,2.18-5.53,0.86c-1.84-0.26-3.68,0.83-5.5,0.98c-2.69,1.72-5.39,1.81-8.09,1.64
		c-2.69-2-5.37,0.78-8.01,1.89c-2.66-1.52-5.31,3.55-7.89,2.84c-2.59-0.55-5.12,0.93-7.55,3.71c-1.93-1.26-2.48,2.41-4.69,1.51
		c-1.67-0.98-3.31-1.4-4.96,0.44c-1.65-1.39-3.3-2.48-5,0.36c-2.52-2.61-4.96,1.01-7.39,0.49c-2.42,0.24-4.83-1.46-7.29,1.15
		c-2.16-2.25-4.28,3.12-6.41,0.59c-2.13-2.86-4.26,2.14-6.46,0.09c-1.76,0.3-3.4,0.51-4.96-1.06c-1.57-0.1-3.08-0.31-4.57-2.43
		c-2.26-3.38-4.62,0.95-7.07-2.86c-2.46-2.67-5.01-2.74-7.66-0.65c-2.28-0.95-4.33,1.82-6.33,1.75c-2,1.87-3.95,4.88-6.06,2.54
		c-1.18,1.91-2.28-2.73-3.36,1.35c-1.08-4.56-2.13,1.99-3.22,1.45c-1.66-1.42-3.53,2.49-5.43,0.95c-1.9,0.3-3.83-3.32-5.57,0.45
		c-2.43,4.02-5.02-0.63-7.58,1.4c-2.56,4.85-5.09,3.59-7.38,2.15c-1.38,4.42-2.79,4.57-4.23,2.28v-60.32H559.71z"/>
	<path style="fill:#ECECEC;" d="M559.71,210.45v57.08c-0.39,0.01-0.77,0.16-1.16,0.57c-1.55,0.91-3.1-0.81-4.65,0
		c-3.09,1.34-6.17-0.35-9.25-0.21c-3.08-0.45-6.16,1.28-9.24-0.37c-3.08,1.24-6.16-1.13-9.26-0.19c-3.57,0.02-7.04-2.3-10.51-0.47
		c-3.47-1.13-6.93-2.51-10.47-1.28c-1.29,1.07-2.52-0.68-3.74-1.02c-1.23-1.43-2.44-2.75-3.69-1.05c-1.45-1.31-2.75,2.04-4.24-0.6
		c-1.75,0.8-3.5,0.76-5.26-1.17c-1.77-1.45-3.53,1.42-5.29-1.03c-2.33-2.74-4.82,0.82-7.08-0.31c-1.33,0.9-2.27-1.78-3.65-0.83
		c-1.16,1.52-2.34-1.95-3.51-0.01c-2.21-0.58-4.4,1-6.59,0.4c-2.2,0.55-4.39-0.57-6.61,0.41c-1.4,0.25-2.79,0.58-4.18-0.03
		c-1.4-2-2.79,0.32-4.18,0.01c-1.57,0.09-3,0.36-4.39-0.86c-1.39,0.57-2.74-1.11-4.18-1.84c-1.36-0.98-2.57,0.42-3.74-1.92
		c-1.17,0.57-2.29-2.82-3.48-2.13c-1.03-1.09-0.88-1.69-2.1-0.99c-1.09,1.31-1.3-0.91-2.29-0.96c-1.22,1.77-2.48-1.77-3.76-2.07
		c-1.28-1.15-2.58-1.48-3.86-1.82c-1.09-0.46-2.15-1.46-3.31-1.38c-1.19-0.23-2.51,0.31-3.84-0.12c-1.32-0.09-2.65-0.55-3.86,0.16
		c-2.18-0.5-4.11-0.23-5.94,0.23c-1.83-1.05-3.55-0.19-5.3,2.38c-1.41,0.35-2.73,3.02-3.88,4.15c-1.15,3.1-2.14,2.14-2.9,4.87
		c-0.49,3.11-0.92,4.84-1.47,3.36c-0.56,1.8-1.24,2.18-2.22,2.85c-1.32,1.8-2.92,1.62-4.57,1.49c-1.66-0.77-3.36,1.08-4.88,0.04
		c-1.89-1.72-3.75-1.2-5.58-0.16c-1.83,0.58-3.64-0.31-5.41-0.98c-1.89-0.85-2.69,0.45-4.13-2.8c-0.92-1.24-1.09-1.64-2.49-0.73
		c-1.73-0.95-2.82,1.65-4.53,1.54c-1.56-0.77-3.11,0.81-4.68,1.45c-1.56,2.4-3.14,1.06-4.77,1.08c-1.19,0.56-2.41,1.55-3.59,0.97
		c-1.18,0.3-2.32-0.22-3.35,1.56c-1.33,0.72-1.98,0.09-3.57,1.17c-2.2,0.3-4.48-0.55-6.73-0.2c-2.26-0.99-4.48-2.14-6.55-1.54
		c-1.27,0.09-2.47-2.02-3.69-2.12c-1.22-3.07-2.46-1.8-3.82-1.6c-1.43,0.29-2.91-0.79-4.4-0.07c-1.49,1.4-2.98-0.9-4.42,0.12
		c-1.91,0.57-3.64,1.9-5.52-0.82c-1.02,1.28-1.92-1.58-2.91-0.15c-0.82-0.23-1.36-1.92-2.44-0.6c-1.59,0.61-3.17-1.08-4.76-0.07
		c-1.67-2.5-3.26,0.21-4.78-0.88c-1.52,1.05-2.98-2.93-4.42-1.34c-1.81-0.34-3.52-1.56-5.37-2.31c-1.76,0.69-3.24-1.58-4.84-2.39
		c-0.89,0.12-2.07-3.1-3.09-2.25c-1.03-1.47-2.57-1.45-4.13-0.36c-1.55-1.22-3.12,0.81-4.17,0.36c-1.6,0.13-3.17-0.48-4.75,1.3
		c-1.22,1.52-3.75,2.85-4.53,1.69c-0.32,1.01-0.62,2.25-0.85,2.94c-0.32,2.8-0.73,0.2-1.14,2.33c-0.94,2.86-2.3,3.55-3.97,3.29
		c-1.86-0.98-4.07,1.31-6.26,0.02c-2.19,0.25-4.35-0.82-6.12-1.65c-0.99-0.31-1.7-2.46-2.64-1.5c-0.93,0.84-2.33-0.26-3.25,0.22
		c-1.74-0.3-3.38-0.07-4.98,1.03c-1.6,1.87-3.17,1.25-4.74,1.7c-1.97,1.94-3.95,2.42-5.89,2.98c-1.93-0.41-3.82,0.86-5.58,3.61
		c-1.4-0.16-2.92,3.49-4.26,2.86c-1.47,1.85-1.7,1.73-3.78,1.63c-2.79-1.23-5.59-0.42-8.37-1.16c-2.78-0.62-5.56-0.18-8.32-1.6
		c-1.71,0.53-3.35,0.69-4.99-1.06c-1.63,0.96-3.26-0.9-4.95-1.23c-1.46,1.28-2.93,1.62-4.45-0.44c-2.06,0.11-3.94,1.16-6.06,1.41
		c-1.54,1.3-3.09,1.02-4.65,0.22c-1.55-0.04-3.11-1.03-4.65-0.07c-1.34,0.63-2.34-0.75-3.58-0.37c-0.8,1.17-1.68,0.47-2.37-1.11
		c-1.7,0.09-3.77,2.16-5.51-0.07c-1.59-0.19-3.14-2.37-4.69-0.16c-1.54-1.68-3.09-2.47-4.67-0.4c-1.53-2.05-3.31-0.79-4.83-0.51
		c-1.57-1.07-3.2-0.63-4.7-2.04c-1.81-0.11-3.98,0.16-4.72-3c-2.23,2.43-4.23,0.84-6.2,1.75c-1.96,3.56-3.9,2-6.01,2.47
		c-1.42,0.2-2.91,0.97-4.41,0.43c-1.5,0.82-3.01-1.79-4.47-0.08c-3.1,0.94-6.2-1.15-9.3-0.6c-3.1-0.78-6.2-2.12-9.3-1.12
		c-3.11-1.28-6.22-1.41-9.33-0.6c-1.59-0.88-3.07,0.27-4.55,0.75c-1.48,0.85-2.95-0.16-4.52,0.81c-1.25-1.34-2.52-0.26-3.78-0.04
		c-1.26-0.5-2.52-1.56-3.77,0.01c-2.2,1-3.92,2.75-5.49,1.82c-1.17,0.83-2.25,1.92-3.37,2.87v-61.55H559.71z"/>
	<path style="fill:#ECECEC;" d="M559.71,296.39v60.55c-1.54-0.03-3.09-0.35-4.62-1.17c-3.19-0.87-6.36-0.93-9.51-1.65
		c-3.15-0.34-6.28-2.15-9.4-2.41c-1.17-1.22-2.46-0.65-3.71-1.14c-1.24,0.17-2.44-0.5-3.43-1.79c-1.34-3.48-2.02-0.86-3.33-3.55
		c-0.72-0.14-1.69-2.71-2.68-2.5c-1-1.5-2.02-1.44-2.84-2.17c-1.49,1.21-4.1-0.06-5.81-1.28c-1.77,1.06-3.65-0.45-5.54-0.18
		c-1.88,0.62-3.76-1.01-5.51,0.34c-1.89-1.98-3.51,1.76-5.08,1.55c-1.56,0.96-3.05-0.89-4.68,2.53c-1.82,0.9-3.72,1.62-5.66,2.46
		c-1.95-0.36-3.94,1.28-5.96,1.67c-3.35,0.69-6.79,2.4-10.2,1.44c-3.41,0.61-6.78-1.27-10.02,2.25c-1.31,2.25-2.81,0.95-4.21,1.86
		c-1.67,0.62-3.47,1.66-5.2,0.62c-2.33-0.44-4.54,2.39-6.69,1.81c-2.15,0.8-4.25,2.16-6.38,2.66c-1.81,0.13-3.88,2.14-6.01,2.08
		c-2.13,0.45-4.31,0.67-6.34,0.63c-1.48-1.04-1.93,0.78-3.16-0.89c-1.31-1.04-2.56-2.66-3.87-2.41c-1.31,0.02-2.69-1.63-4.25-1.73
		c-2.84-1.48-5.74-1.34-8.68-2.07c-2.93-2.45-5.9-1.81-8.88-0.91c-2.98,0.82-5.96-0.98-8.93-0.49c-1.72,0-3.25-0.07-4.77-0.9
		c-1.51,0.68-3-0.5-4.63-1.48c-1.74-0.76-3.65,0.25-5.57-1.31c-1.91-2.57-3.85-0.26-5.65-0.9c-3.09-1.72-6.32,1.11-9.56-1
		c-3.23-2.1-6.47,1.75-9.59,0.28c-2.46,2.22-4.8-0.72-7.11,2.01c-2.31,2.7-4.59,2.3-6.91,2.68c-2.32,2.43-4.67,0.49-7.15,1.41
		c-2.36,1-4.73-1.82-7.09-0.02c-2.37-1.17-4.73-3-7.1-0.01c-1.4,3.1-1.57,0.92-2.54-0.65c-1.18-1.13-2.21-0.7-3.19-3.56
		c-0.97-0.02-1.9-5.98-2.89-3.89c-1.56,1.75-3.39-3.4-5.34-4.58c-1.95-1.26-4.02-6.54-6.06-3.54c-1.92-1.33-3.61-2.26-5.36-3.23
		c-1.74-0.74-3.54-2.19-5.65-2.62c-1.82-2.55-3.67,0.47-5.45-0.8c-1.99,1.09-3.56-1.47-5.44-2.91c-1.19-3.41-2.42-3.06-3.69-1.17
		c-1.27,0.23-2.58-0.75-3.94-0.14c-3.41-0.65-6.18,1.67-8.66,3.57c-2.49,4.31-4.69,2.99-6.98,6.37c-0.91-0.62-1.97-1.91-3.08,1.94
		c-1.12,3.35-2.3,1.69-3.47,1.27c-2.22,3.47-4.52,1.36-6.85,1.5c-2.12,3-4.31-3.6-6.47,1.6c-2.16-0.42-4.29-0.94-6.31,2.13
		c-1.33-0.96-2.61,0.14-3.9,1.71c-1.28,1.11-2.57,0.47-3.93,1.58c-2.12-3.52-3.61-0.09-5.48,2.67c-2,2.24-3.75,1.06-5.48,4.31
		c-1.73,1.36-3.43,2.2-5.35,4.47c-1.1-0.01-1.24-1.65-2.61,0.91c-1.62-0.98-2.86-0.07-4.28,1.22h-20.51
		c-0.38-0.1-0.76-0.19-1.16-0.28c-1.4-1.65-2.88,0.66-4.36-0.15c-1.48-1.32-2.96,0.57-4.38-0.14c-1.99-0.9-3.83-0.36-5.7-2.19
		c-1.86-0.86-3.75-2.23-5.81-1.56c-1.86-1.22-3.81-1.12-5.76,0.16c-1.95,0.25-3.89-0.96-5.73-0.28c-3.06-1.77-6.08-2.69-9.13-1.66
		c-3.05-3.07-6.12-2.42-9.27-0.55c-1.35-0.29-2.66,1.77-3.97,0.47c-1.3-2.24-2.62,0.54-3.99,0.35c-1.28-1.1-2.57,1.93-3.85-0.01
		c-1.29-1.35-2.57,0.46-3.85,0c-1.23,0.62-2.63-0.64-3.85,0.04c-1.29-0.02-2.53,0.32-3.77-0.88c-1.24-0.06-2.49,2.67-3.82-0.74
		c-2.49-1.58-5.2-4.57-7.91-0.3c-2.71,1.81-5.41-0.37-7.88,0.4c-2.28-0.42-4.12,1.36-6.49,0.71c-1.26-0.87-2.51,1.75-3.77-0.01
		c-1.26,1.36-2.51,1.31-3.77,0.01c-3.23-2.73-6.43,0.04-9.63,0.04c-3.19,0.67-6.38-5.3-9.57,0.83c-1.13-1.14-2.26-0.98-3.38-0.4
		v-58.89H559.71z"/>
</g>
</svg>
