<svg xml:space="preserve" style="max-height: 500px" viewBox="44 129.6 512 66.4" y="0px" x="0px" xmlns:xlink="http://www.w3.org/1999/xlink" xmlns="http://www.w3.org/2000/svg" id="Ripped_paper" version="1.1" width="512" height="66.4">
<rect height="400" width="600" style="fill:#3B3D49;" x="0" id="Background"></rect>
<g>
	<g>
		<g>
			
		</g>
		<g>
			<path d="M559.71,129.52v57c-0.6-0.21-1.2-0.37-1.8-0.43c-2.63-0.24-5.29-2.29-7.8-1.25
				c-2.06-0.46-4.2-4.43-6.43-0.87c-1.78,1.26-3.24,2.94-4.7,3.23c-1.26,2.68-2.25,2.12-3.66,1.7c-1.6-0.27-3.51,0.7-5.44,0.83
				c-1.93-2.91-3.88,0.03-5.56-0.38c-3.46,0.79-6.88-3.79-10.33-1.79c-3.45-0.76-6.91-0.47-10.43-1.19
				c-2.49,1.01-4.96,0.58-7.43-0.43c-2.47-0.56-4.94-2.41-7.45-0.32c-1.76-1.5-2.97-0.59-4.61,0.6c-1.74,0.72-3.47-1.19-5.23,0.13
				c-2.39-0.91-4.9,2.74-7.39,0.85c-2.5-0.01-4.99,1.46-7.35,1.3c-2.74,1.3-5.41,3.48-8.09,0.87c-2.68-0.39-5.38,0.81-8.16,0.11
				c-3.21,0.15-6.45,0.4-9.64-0.72c-3.2-0.8-6.36,1.36-9.4-2.37c-2.97,1.51-5.96-0.26-8.98-1.49c-3.02,0.14-6.06-0.22-9.15-0.45
				c-1.53-0.62-3.03-1.53-4.53-0.27c-1.51-1.01-3.01-0.03-4.55-0.07c-1.74,0.78-3.45,1.09-5.17-0.47c-1.71,0.25-3.43,2.45-5.18-0.37
				c-2.77,0.71-5.53,0.19-8.29,0.04c-2.77-0.13-5.53-0.04-8.29-0.03c-3.04-2.59-6.09-0.56-9.15,0.2c-3.05-1.53-6.11,0.54-9.16,0.62
				c-3.06,0.97-6.09,2.28-9.1,0.95c-1.59,2.29-3.12-0.9-4.65,0.43c-1.52-3.6-3.06,1.9-4.64,0.13c-1.14-1.87-2.43-1.32-3.54,0.07
				c-2.15,1.31-4.39-0.98-6.65,1.43c-2.26,0.56-4.54,1.04-6.79,0.85c-2.31,0.14-4.58-1.93-6.86,0.76c-2.27,0.19-4.54,2.44-6.84,0.79
				c-2.78,0.77-5.53,0.21-8.28,0.43c-2.75-0.23-5.5,0.71-8.29,0.32c-2.79-2.46-5.59,2.27-8.38-0.02c-2.79,0.89-5.58,0.25-8.37,0.02
				c-1.52-0.26-2.73-0.56-3.89-0.81c-1.16-1.1-2.26-0.91-3.54-2.06c-1.26,0.17-2.54-3.18-3.84-2.43c-1.29,0.7-2.6-0.87-3.92-2.29
				c-1.63-0.39-3.33-1.4-5.06-1.83c-1.73,0.28-3.5-0.53-5.27-1.13c-1.7,0.91-3.66-0.79-5.64-1.42c-1.97-0.62-3.97,1.2-5.76-0.45
				c-1.3,0.42-2.35,0.74-3.66,0.84c-1.84,1.45-1.98,1.13-3.13-1.92c-0.94,0.93-1.93-1.17-2.92-2.91c-0.98-0.37-1.96-4.43-2.86-3
				c-0.92-1-1.74-3.75-2.64-3.55c-0.89-2.08-1.85-0.72-3.04-3.12c-1.24-2.72-2.79-1.02-4.37-1.14c-1.58-2.04-3.2-1.43-4.55,0.55
				c-1.93-1.55-3.8,1.18-5.68,1.25c-1.88-0.43-3.77,0.18-5.72,1.13c-1.84-1.87-3.69,2.18-5.53,0.86c-1.84-0.26-3.68,0.83-5.5,0.98
				c-2.69,1.72-5.39,1.81-8.09,1.64c-2.69-2-5.37,0.78-8.01,1.89c-2.66-1.52-5.31,3.55-7.89,2.84c-2.59-0.55-5.12,0.93-7.55,3.71
				c-1.93-1.26-2.48,2.41-4.69,1.51c-1.67-0.98-3.31-1.4-4.96,0.44c-1.65-1.39-3.3-2.48-5,0.36c-2.52-2.61-4.96,1.01-7.39,0.49
				c-2.42,0.24-4.83-1.46-7.29,1.15c-2.16-2.25-4.28,3.12-6.41,0.59c-2.13-2.86-4.26,2.14-6.46,0.09c-1.76,0.3-3.4,0.51-4.96-1.06
				c-1.57-0.1-3.08-0.31-4.57-2.43c-2.26-3.38-4.62,0.95-7.07-2.86c-2.46-2.67-5.01-2.74-7.66-0.65c-2.28-0.95-4.33,1.82-6.33,1.75
				c-2,1.87-3.95,4.88-6.06,2.54c-1.18,1.91-2.28-2.73-3.36,1.35c-1.08-4.56-2.13,1.99-3.22,1.45c-1.66-1.42-3.53,2.49-5.43,0.95
				c-1.9,0.3-3.83-3.32-5.57,0.45c-2.43,4.02-5.02-0.63-7.58,1.4c-2.56,4.85-5.09,3.59-7.38,2.15c-1.38,4.42-2.79,4.57-4.23,2.28
				v-60.32H559.71z" style="fill: rgb(23, 24, 30); opacity: 1;" data-index="1"></path>
		</g>
		<g>
			
		</g>
		<g>
			<path d="M559.71,301.39v60.55c-1.54-0.03-3.09-0.35-4.62-1.17c-3.19-0.87-6.36-0.93-9.51-1.65
				c-3.15-0.34-6.28-2.15-9.4-2.41c-1.17-1.22-2.46-0.65-3.71-1.14c-1.24,0.17-2.44-0.5-3.43-1.79c-1.34-3.48-2.02-0.86-3.33-3.55
				c-0.72-0.14-1.69-2.71-2.68-2.5c-1-1.5-2.02-1.44-2.84-2.17c-1.49,1.21-4.1-0.06-5.81-1.28c-1.77,1.06-3.65-0.45-5.54-0.18
				c-1.88,0.62-3.76-1.01-5.51,0.34c-1.89-1.98-3.51,1.76-5.08,1.55c-1.56,0.96-3.05-0.89-4.68,2.53c-1.82,0.9-3.72,1.62-5.66,2.46
				c-1.95-0.36-3.94,1.28-5.96,1.67c-3.35,0.69-6.79,2.4-10.2,1.44c-3.41,0.61-6.78-1.27-10.02,2.25c-1.31,2.25-2.81,0.95-4.21,1.86
				c-1.67,0.62-3.47,1.66-5.2,0.62c-2.33-0.44-4.54,2.39-6.69,1.81c-2.15,0.8-4.25,2.16-6.38,2.66c-1.81,0.13-3.88,2.14-6.01,2.08
				c-2.13,0.45-4.31,0.67-6.34,0.63c-1.48-1.04-1.93,0.78-3.16-0.89c-1.31-1.04-2.56-2.66-3.87-2.41c-1.31,0.02-2.69-1.63-4.25-1.73
				c-2.84-1.48-5.74-1.34-8.68-2.07c-2.93-2.45-5.9-1.81-8.88-0.91c-2.98,0.82-5.96-0.98-8.93-0.49c-1.72,0-3.25-0.07-4.77-0.9
				c-1.51,0.68-3-0.5-4.63-1.48c-1.74-0.76-3.65,0.25-5.57-1.31c-1.91-2.57-3.85-0.26-5.65-0.9c-3.09-1.72-6.32,1.11-9.56-1
				c-3.23-2.1-6.47,1.75-9.59,0.28c-2.46,2.22-4.8-0.72-7.11,2.01c-2.31,2.7-4.59,2.3-6.91,2.68c-2.32,2.43-4.67,0.49-7.15,1.41
				c-2.36,1-4.73-1.82-7.09-0.02c-2.37-1.17-4.73-3-7.1-0.01c-1.4,3.1-1.57,0.92-2.54-0.65c-1.18-1.13-2.21-0.7-3.19-3.56
				c-0.97-0.02-1.9-5.98-2.89-3.89c-1.56,1.75-3.39-3.4-5.34-4.58c-1.95-1.26-4.02-6.54-6.06-3.54c-1.92-1.33-3.61-2.26-5.36-3.23
				c-1.74-0.74-3.54-2.19-5.65-2.62c-1.82-2.55-3.67,0.47-5.45-0.8c-1.99,1.09-3.56-1.47-5.44-2.91c-1.19-3.41-2.42-3.06-3.69-1.17
				c-1.27,0.23-2.58-0.75-3.94-0.14c-3.41-0.65-6.18,1.67-8.66,3.57c-2.49,4.31-4.69,2.99-6.98,6.37c-0.91-0.62-1.97-1.91-3.08,1.94
				c-1.12,3.35-2.3,1.69-3.47,1.27c-2.22,3.47-4.52,1.36-6.85,1.5c-2.12,3-4.31-3.6-6.47,1.6c-2.16-0.42-4.29-0.94-6.31,2.13
				c-1.33-0.96-2.61,0.14-3.9,1.71c-1.28,1.11-2.57,0.47-3.93,1.58c-2.12-3.52-3.61-0.09-5.48,2.67c-2,2.24-3.75,1.06-5.48,4.31
				c-1.73,1.36-3.43,2.2-5.35,4.47c-1.1-0.01-1.24-1.65-2.61,0.91c-1.62-0.98-2.86-0.07-4.28,1.22h-20.51
				c-0.38-0.1-0.76-0.19-1.16-0.28c-1.4-1.65-2.88,0.66-4.36-0.15c-1.48-1.32-2.96,0.57-4.38-0.14c-1.99-0.9-3.83-0.36-5.7-2.19
				c-1.86-0.86-3.75-2.23-5.81-1.56c-1.86-1.22-3.81-1.12-5.76,0.16c-1.95,0.25-3.89-0.96-5.73-0.28c-3.06-1.77-6.08-2.69-9.13-1.66
				c-3.05-3.07-6.12-2.42-9.27-0.55c-1.35-0.29-2.66,1.77-3.97,0.47c-1.3-2.24-2.62,0.54-3.99,0.35c-1.28-1.1-2.57,1.93-3.85-0.01
				c-1.29-1.35-2.57,0.46-3.85,0c-1.23,0.62-2.63-0.64-3.85,0.04c-1.29-0.02-2.53,0.32-3.77-0.88c-1.24-0.06-2.49,2.67-3.82-0.74
				c-2.49-1.58-5.2-4.57-7.91-0.3c-2.71,1.81-5.41-0.37-7.88,0.4c-2.28-0.42-4.12,1.36-6.49,0.71c-1.26-0.87-2.51,1.75-3.77-0.01
				c-1.26,1.36-2.51,1.31-3.77,0.01c-3.23-2.73-6.43,0.04-9.63,0.04c-3.19,0.67-6.38-5.3-9.57,0.83c-1.13-1.14-2.26-0.98-3.38-0.4
				v-58.89H559.71z" style="fill:#17181E;" data-index="3"></path>
		</g>
	</g>
</g>
<g>
	
	<path d="M559.71,124.52v57c-0.6-0.21-1.2-0.37-1.8-0.43c-2.63-0.24-5.29-2.29-7.8-1.25
		c-2.06-0.46-4.2-4.43-6.43-0.87c-1.78,1.26-3.24,2.94-4.7,3.23c-1.26,2.68-2.25,2.12-3.66,1.7c-1.6-0.27-3.51,0.7-5.44,0.83
		c-1.93-2.91-3.88,0.03-5.56-0.38c-3.46,0.79-6.88-3.79-10.33-1.79c-3.45-0.76-6.91-0.47-10.43-1.19c-2.49,1.01-4.96,0.58-7.43-0.43
		c-2.47-0.56-4.94-2.41-7.45-0.32c-1.76-1.5-2.97-0.59-4.61,0.6c-1.74,0.72-3.47-1.19-5.23,0.13c-2.39-0.91-4.9,2.74-7.39,0.85
		c-2.5-0.01-4.99,1.46-7.35,1.3c-2.74,1.3-5.41,3.48-8.09,0.87c-2.68-0.39-5.38,0.81-8.16,0.11c-3.21,0.15-6.45,0.4-9.64-0.72
		c-3.2-0.8-6.36,1.36-9.4-2.37c-2.97,1.51-5.96-0.26-8.98-1.49c-3.02,0.14-6.06-0.22-9.15-0.45c-1.53-0.62-3.03-1.53-4.53-0.27
		c-1.51-1.01-3.01-0.03-4.55-0.07c-1.74,0.78-3.45,1.09-5.17-0.47c-1.71,0.25-3.43,2.45-5.18-0.37c-2.77,0.71-5.53,0.19-8.29,0.04
		c-2.77-0.13-5.53-0.04-8.29-0.03c-3.04-2.59-6.09-0.56-9.15,0.2c-3.05-1.53-6.11,0.54-9.16,0.62c-3.06,0.97-6.09,2.28-9.1,0.95
		c-1.59,2.29-3.12-0.9-4.65,0.43c-1.52-3.6-3.06,1.9-4.64,0.13c-1.14-1.87-2.43-1.32-3.54,0.07c-2.15,1.31-4.39-0.98-6.65,1.43
		c-2.26,0.56-4.54,1.04-6.79,0.85c-2.31,0.14-4.58-1.93-6.86,0.76c-2.27,0.19-4.54,2.44-6.84,0.79c-2.78,0.77-5.53,0.21-8.28,0.43
		c-2.75-0.23-5.5,0.71-8.29,0.32c-2.79-2.46-5.59,2.27-8.38-0.02c-2.79,0.89-5.58,0.25-8.37,0.02c-1.52-0.26-2.73-0.56-3.89-0.81
		c-1.16-1.1-2.26-0.91-3.54-2.06c-1.26,0.17-2.54-3.18-3.84-2.43c-1.29,0.7-2.6-0.87-3.92-2.29c-1.63-0.39-3.33-1.4-5.06-1.83
		c-1.73,0.28-3.5-0.53-5.27-1.13c-1.7,0.91-3.66-0.79-5.64-1.42c-1.97-0.62-3.97,1.2-5.76-0.45c-1.3,0.42-2.35,0.74-3.66,0.84
		c-1.84,1.45-1.98,1.13-3.13-1.92c-0.94,0.93-1.93-1.17-2.92-2.91c-0.98-0.37-1.96-4.43-2.86-3c-0.92-1-1.74-3.75-2.64-3.55
		c-0.89-2.08-1.85-0.72-3.04-3.12c-1.24-2.72-2.79-1.02-4.37-1.14c-1.58-2.04-3.2-1.43-4.55,0.55c-1.93-1.55-3.8,1.18-5.68,1.25
		c-1.88-0.43-3.77,0.18-5.72,1.13c-1.84-1.87-3.69,2.18-5.53,0.86c-1.84-0.26-3.68,0.83-5.5,0.98c-2.69,1.72-5.39,1.81-8.09,1.64
		c-2.69-2-5.37,0.78-8.01,1.89c-2.66-1.52-5.31,3.55-7.89,2.84c-2.59-0.55-5.12,0.93-7.55,3.71c-1.93-1.26-2.48,2.41-4.69,1.51
		c-1.67-0.98-3.31-1.4-4.96,0.44c-1.65-1.39-3.3-2.48-5,0.36c-2.52-2.61-4.96,1.01-7.39,0.49c-2.42,0.24-4.83-1.46-7.29,1.15
		c-2.16-2.25-4.28,3.12-6.41,0.59c-2.13-2.86-4.26,2.14-6.46,0.09c-1.76,0.3-3.4,0.51-4.96-1.06c-1.57-0.1-3.08-0.31-4.57-2.43
		c-2.26-3.38-4.62,0.95-7.07-2.86c-2.46-2.67-5.01-2.74-7.66-0.65c-2.28-0.95-4.33,1.82-6.33,1.75c-2,1.87-3.95,4.88-6.06,2.54
		c-1.18,1.91-2.28-2.73-3.36,1.35c-1.08-4.56-2.13,1.99-3.22,1.45c-1.66-1.42-3.53,2.49-5.43,0.95c-1.9,0.3-3.83-3.32-5.57,0.45
		c-2.43,4.02-5.02-0.63-7.58,1.4c-2.56,4.85-5.09,3.59-7.38,2.15c-1.38,4.42-2.79,4.57-4.23,2.28v-60.32H559.71z" style="fill: rgb(236, 236, 236); opacity: 1;" data-index="5"></path>
	
	<path d="M559.71,296.39v60.55c-1.54-0.03-3.09-0.35-4.62-1.17c-3.19-0.87-6.36-0.93-9.51-1.65
		c-3.15-0.34-6.28-2.15-9.4-2.41c-1.17-1.22-2.46-0.65-3.71-1.14c-1.24,0.17-2.44-0.5-3.43-1.79c-1.34-3.48-2.02-0.86-3.33-3.55
		c-0.72-0.14-1.69-2.71-2.68-2.5c-1-1.5-2.02-1.44-2.84-2.17c-1.49,1.21-4.1-0.06-5.81-1.28c-1.77,1.06-3.65-0.45-5.54-0.18
		c-1.88,0.62-3.76-1.01-5.51,0.34c-1.89-1.98-3.51,1.76-5.08,1.55c-1.56,0.96-3.05-0.89-4.68,2.53c-1.82,0.9-3.72,1.62-5.66,2.46
		c-1.95-0.36-3.94,1.28-5.96,1.67c-3.35,0.69-6.79,2.4-10.2,1.44c-3.41,0.61-6.78-1.27-10.02,2.25c-1.31,2.25-2.81,0.95-4.21,1.86
		c-1.67,0.62-3.47,1.66-5.2,0.62c-2.33-0.44-4.54,2.39-6.69,1.81c-2.15,0.8-4.25,2.16-6.38,2.66c-1.81,0.13-3.88,2.14-6.01,2.08
		c-2.13,0.45-4.31,0.67-6.34,0.63c-1.48-1.04-1.93,0.78-3.16-0.89c-1.31-1.04-2.56-2.66-3.87-2.41c-1.31,0.02-2.69-1.63-4.25-1.73
		c-2.84-1.48-5.74-1.34-8.68-2.07c-2.93-2.45-5.9-1.81-8.88-0.91c-2.98,0.82-5.96-0.98-8.93-0.49c-1.72,0-3.25-0.07-4.77-0.9
		c-1.51,0.68-3-0.5-4.63-1.48c-1.74-0.76-3.65,0.25-5.57-1.31c-1.91-2.57-3.85-0.26-5.65-0.9c-3.09-1.72-6.32,1.11-9.56-1
		c-3.23-2.1-6.47,1.75-9.59,0.28c-2.46,2.22-4.8-0.72-7.11,2.01c-2.31,2.7-4.59,2.3-6.91,2.68c-2.32,2.43-4.67,0.49-7.15,1.41
		c-2.36,1-4.73-1.82-7.09-0.02c-2.37-1.17-4.73-3-7.1-0.01c-1.4,3.1-1.57,0.92-2.54-0.65c-1.18-1.13-2.21-0.7-3.19-3.56
		c-0.97-0.02-1.9-5.98-2.89-3.89c-1.56,1.75-3.39-3.4-5.34-4.58c-1.95-1.26-4.02-6.54-6.06-3.54c-1.92-1.33-3.61-2.26-5.36-3.23
		c-1.74-0.74-3.54-2.19-5.65-2.62c-1.82-2.55-3.67,0.47-5.45-0.8c-1.99,1.09-3.56-1.47-5.44-2.91c-1.19-3.41-2.42-3.06-3.69-1.17
		c-1.27,0.23-2.58-0.75-3.94-0.14c-3.41-0.65-6.18,1.67-8.66,3.57c-2.49,4.31-4.69,2.99-6.98,6.37c-0.91-0.62-1.97-1.91-3.08,1.94
		c-1.12,3.35-2.3,1.69-3.47,1.27c-2.22,3.47-4.52,1.36-6.85,1.5c-2.12,3-4.31-3.6-6.47,1.6c-2.16-0.42-4.29-0.94-6.31,2.13
		c-1.33-0.96-2.61,0.14-3.9,1.71c-1.28,1.11-2.57,0.47-3.93,1.58c-2.12-3.52-3.61-0.09-5.48,2.67c-2,2.24-3.75,1.06-5.48,4.31
		c-1.73,1.36-3.43,2.2-5.35,4.47c-1.1-0.01-1.24-1.65-2.61,0.91c-1.62-0.98-2.86-0.07-4.28,1.22h-20.51
		c-0.38-0.1-0.76-0.19-1.16-0.28c-1.4-1.65-2.88,0.66-4.36-0.15c-1.48-1.32-2.96,0.57-4.38-0.14c-1.99-0.9-3.83-0.36-5.7-2.19
		c-1.86-0.86-3.75-2.23-5.81-1.56c-1.86-1.22-3.81-1.12-5.76,0.16c-1.95,0.25-3.89-0.96-5.73-0.28c-3.06-1.77-6.08-2.69-9.13-1.66
		c-3.05-3.07-6.12-2.42-9.27-0.55c-1.35-0.29-2.66,1.77-3.97,0.47c-1.3-2.24-2.62,0.54-3.99,0.35c-1.28-1.1-2.57,1.93-3.85-0.01
		c-1.29-1.35-2.57,0.46-3.85,0c-1.23,0.62-2.63-0.64-3.85,0.04c-1.29-0.02-2.53,0.32-3.77-0.88c-1.24-0.06-2.49,2.67-3.82-0.74
		c-2.49-1.58-5.2-4.57-7.91-0.3c-2.71,1.81-5.41-0.37-7.88,0.4c-2.28-0.42-4.12,1.36-6.49,0.71c-1.26-0.87-2.51,1.75-3.77-0.01
		c-1.26,1.36-2.51,1.31-3.77,0.01c-3.23-2.73-6.43,0.04-9.63,0.04c-3.19,0.67-6.38-5.3-9.57,0.83c-1.13-1.14-2.26-0.98-3.38-0.4
		v-58.89H559.71z" style="fill:#ECECEC;" data-index="7"></path>
</g>
</svg>